<svg width="36" height="36" viewBox="0 0 36 36" fill="none" xmlns="http://www.w3.org/2000/svg">
<g clip-path="url(#clip0_1_5)">
<path d="M25.6481 0.788406L0.788346 25.6518C0.283201 26.16 -3.26334e-05 26.8476 0.000642072 27.5641C0.00131678 28.2807 0.285845 28.9678 0.791946 29.475L6.52495 35.2116C7.03241 35.7173 7.71941 36.0015 8.4358 36.0022C9.1522 36.0028 9.83973 35.7199 10.3481 35.2152L35.2115 10.3518C35.7164 9.84333 35.9997 9.15585 35.9997 8.43931C35.9997 7.72276 35.7164 7.03529 35.2115 6.52681L29.4767 0.788406C28.9677 0.283325 28.2796 -9.15527e-05 27.5624 -9.15527e-05C26.8453 -9.15527e-05 26.1572 0.283325 25.6481 0.788406V0.788406ZM7.07215 27.5616L5.70595 28.9278L2.29315 25.5132L3.65935 24.147L7.07215 27.5616V27.5616ZM12.5369 27.5616L11.1707 28.9278L5.02375 22.7808L6.38995 21.4128L12.5369 27.5616ZM12.5369 22.0968L11.1707 23.463L7.75435 20.0502L9.12235 18.6822L12.5369 22.0968ZM15.2693 19.3644L13.9031 20.7306L10.4903 17.3178L11.8565 15.9498L15.2693 19.3644ZM20.7323 19.3644L19.3661 20.7306L13.2209 14.5854L14.5871 13.2192L20.7323 19.3644ZM20.7323 13.9014L19.3661 15.2676L15.9533 11.8548L17.3195 10.4886L20.7323 13.9014ZM23.4647 11.1708L22.0985 12.537L18.6839 9.12241L20.0501 7.75621L23.4647 11.1708ZM28.9295 11.1708L27.5615 12.537L21.4163 6.39001L22.7825 5.02201L28.9295 11.1708ZM28.9277 5.70781L27.5615 7.07401L24.1487 3.65761L25.5149 2.29321L28.9277 5.70781Z" fill="white"/>
</g>
<defs>
<clipPath id="clip0_1_5">
<rect width="36" height="36" fill="white"/>
</clipPath>
</defs>
</svg>
