<svg width="36" height="36" viewBox="0 0 36 36" fill="none" xmlns="http://www.w3.org/2000/svg">
<path d="M30.7859 12.4891C26.9607 14.5216 23.1536 16.6205 19.4343 18.8522C18.1117 17.5407 17.0155 16.4967 16.7331 15.2554C16.7485 15.1812 16.6841 14.4152 16.6879 14.3068C16.7028 13.9174 16.7221 13.5279 16.7634 13.1397C16.8827 12.0467 17.08 10.9608 17.258 9.87491C17.5468 8.10485 16.7937 6.34382 14.9308 5.84472C14.2685 5.66739 13.5147 5.73446 12.837 5.99561C12.5894 5.8602 12.305 5.76605 11.9807 5.72994C9.24208 5.42623 6.55378 4.82331 3.97511 3.84833C1.4003 2.87528 0.29893 6.99381 2.84278 7.9559C5.35762 8.90702 7.9608 9.46157 10.6104 9.8201C10.6014 9.8704 10.593 9.92069 10.5833 9.97099C7.48879 10.5649 4.45422 11.4038 1.46672 12.433C-1.11454 13.3215 -0.00543039 17.4381 2.59904 16.5405C5.05584 15.6939 7.54295 14.9762 10.0694 14.4171C10.0668 15.3469 10.161 16.2632 10.4105 17.1441C11.0038 19.232 12.3005 20.9138 13.7572 22.4601C12.8686 23.0636 11.9749 23.6562 11.036 24.1676C9.36847 25.0761 7.51265 26.2852 6.87104 28.1836C5.68004 31.7082 9.35621 33.1049 11.223 35.2567C13.0253 37.3356 16.0257 34.3095 14.235 32.2441C13.3393 31.2117 12.1219 30.5765 11.1727 29.6112C10.7162 29.145 10.7761 29.5661 11.2752 29.1128C12 28.4531 12.8409 28.0662 13.6811 27.5761C16.3191 26.0389 18.7946 24.2056 21.4255 22.6419C25.21 20.3953 29.0474 18.2338 32.9344 16.1665C35.3616 14.8769 33.2104 11.2 30.7859 12.4891Z" fill="white"/>
<path d="M19.2118 6.68431C21.0576 6.68431 22.5539 5.18798 22.5539 3.34216C22.5539 1.49633 21.0576 0 19.2118 0C17.366 0 15.8696 1.49633 15.8696 3.34216C15.8696 5.18798 17.366 6.68431 19.2118 6.68431Z" fill="white"/>
</svg>
